<?xml version="1.0" encoding="utf-8" standalone="no"?>
<!DOCTYPE svg PUBLIC "-//W3C//DTD SVG 1.1//EN"
  "http://www.w3.org/Graphics/SVG/1.1/DTD/svg11.dtd">
<svg xmlns:xlink="http://www.w3.org/1999/xlink" width="720pt" height="432pt" viewBox="0 0 720 432" xmlns="http://www.w3.org/2000/svg" version="1.1">
 <metadata>
  <rdf:RDF xmlns:dc="http://purl.org/dc/elements/1.1/" xmlns:cc="http://creativecommons.org/ns#" xmlns:rdf="http://www.w3.org/1999/02/22-rdf-syntax-ns#">
   <cc:Work>
    <dc:type rdf:resource="http://purl.org/dc/dcmitype/StillImage"/>
    <dc:date>2023-12-12T11:11:24.744881</dc:date>
    <dc:format>image/svg+xml</dc:format>
    <dc:creator>
     <cc:Agent>
      <dc:title>Matplotlib v3.8.1, https://matplotlib.org/</dc:title>
     </cc:Agent>
    </dc:creator>
   </cc:Work>
  </rdf:RDF>
 </metadata>
 <defs>
  <style type="text/css">*{stroke-linejoin: round; stroke-linecap: butt}</style>
 </defs>
 <g id="figure_1">
  <g id="patch_1">
   <path d="M 0 432 
L 720 432 
L 720 0 
L 0 0 
z
" style="fill: #f8f8f8"/>
  </g>
  <g id="axes_1">
   <g id="patch_2">
    <path d="M 90 384.48 
L 648 384.48 
L 648 51.84 
L 90 51.84 
z
" style="fill: #eaeaf2"/>
   </g>
   <g id="matplotlib.axis_1">
    <g id="xtick_1">
     <g id="text_1">
      <!-- 3 -->
      <g style="fill: #262626" transform="translate(156.56875 399.078438) scale(0.1 -0.1)">
       <defs>
        <path id="DejaVuSans-33" d="M 2597 2516 
Q 3050 2419 3304 2112 
Q 3559 1806 3559 1356 
Q 3559 666 3084 287 
Q 2609 -91 1734 -91 
Q 1441 -91 1130 -33 
Q 819 25 488 141 
L 488 750 
Q 750 597 1062 519 
Q 1375 441 1716 441 
Q 2309 441 2620 675 
Q 2931 909 2931 1356 
Q 2931 1769 2642 2001 
Q 2353 2234 1838 2234 
L 1294 2234 
L 1294 2753 
L 1863 2753 
Q 2328 2753 2575 2939 
Q 2822 3125 2822 3475 
Q 2822 3834 2567 4026 
Q 2313 4219 1838 4219 
Q 1578 4219 1281 4162 
Q 984 4106 628 3988 
L 628 4550 
Q 988 4650 1302 4700 
Q 1616 4750 1894 4750 
Q 2613 4750 3031 4423 
Q 3450 4097 3450 3541 
Q 3450 3153 3228 2886 
Q 3006 2619 2597 2516 
z
" transform="scale(0.015625)"/>
       </defs>
       <use xlink:href="#DejaVuSans-33"/>
      </g>
     </g>
    </g>
    <g id="xtick_2">
     <g id="text_2">
      <!-- 5 -->
      <g style="fill: #262626" transform="translate(296.06875 399.078438) scale(0.1 -0.1)">
       <defs>
        <path id="DejaVuSans-35" d="M 691 4666 
L 3169 4666 
L 3169 4134 
L 1269 4134 
L 1269 2991 
Q 1406 3038 1543 3061 
Q 1681 3084 1819 3084 
Q 2600 3084 3056 2656 
Q 3513 2228 3513 1497 
Q 3513 744 3044 326 
Q 2575 -91 1722 -91 
Q 1428 -91 1123 -41 
Q 819 9 494 109 
L 494 744 
Q 775 591 1075 516 
Q 1375 441 1709 441 
Q 2250 441 2565 725 
Q 2881 1009 2881 1497 
Q 2881 1984 2565 2268 
Q 2250 2553 1709 2553 
Q 1456 2553 1204 2497 
Q 953 2441 691 2322 
L 691 4666 
z
" transform="scale(0.015625)"/>
       </defs>
       <use xlink:href="#DejaVuSans-35"/>
      </g>
     </g>
    </g>
    <g id="xtick_3">
     <g id="text_3">
      <!-- 7 -->
      <g style="fill: #262626" transform="translate(435.56875 399.078438) scale(0.1 -0.1)">
       <defs>
        <path id="DejaVuSans-37" d="M 525 4666 
L 3525 4666 
L 3525 4397 
L 1831 0 
L 1172 0 
L 2766 4134 
L 525 4134 
L 525 4666 
z
" transform="scale(0.015625)"/>
       </defs>
       <use xlink:href="#DejaVuSans-37"/>
      </g>
     </g>
    </g>
    <g id="xtick_4">
     <g id="text_4">
      <!-- 9 -->
      <g style="fill: #262626" transform="translate(575.06875 399.078438) scale(0.1 -0.1)">
       <defs>
        <path id="DejaVuSans-39" d="M 703 97 
L 703 672 
Q 941 559 1184 500 
Q 1428 441 1663 441 
Q 2288 441 2617 861 
Q 2947 1281 2994 2138 
Q 2813 1869 2534 1725 
Q 2256 1581 1919 1581 
Q 1219 1581 811 2004 
Q 403 2428 403 3163 
Q 403 3881 828 4315 
Q 1253 4750 1959 4750 
Q 2769 4750 3195 4129 
Q 3622 3509 3622 2328 
Q 3622 1225 3098 567 
Q 2575 -91 1691 -91 
Q 1453 -91 1209 -44 
Q 966 3 703 97 
z
M 1959 2075 
Q 2384 2075 2632 2365 
Q 2881 2656 2881 3163 
Q 2881 3666 2632 3958 
Q 2384 4250 1959 4250 
Q 1534 4250 1286 3958 
Q 1038 3666 1038 3163 
Q 1038 2656 1286 2365 
Q 1534 2075 1959 2075 
z
" transform="scale(0.015625)"/>
       </defs>
       <use xlink:href="#DejaVuSans-39"/>
      </g>
     </g>
    </g>
    <g id="text_5">
     <!-- CPU Series Factor -->
     <g style="fill: #262626" transform="translate(324.971875 418.756563) scale(0.1 -0.1)">
      <defs>
       <path id="DejaVuSans-43" d="M 4122 4306 
L 4122 3641 
Q 3803 3938 3442 4084 
Q 3081 4231 2675 4231 
Q 1875 4231 1450 3742 
Q 1025 3253 1025 2328 
Q 1025 1406 1450 917 
Q 1875 428 2675 428 
Q 3081 428 3442 575 
Q 3803 722 4122 1019 
L 4122 359 
Q 3791 134 3420 21 
Q 3050 -91 2638 -91 
Q 1578 -91 968 557 
Q 359 1206 359 2328 
Q 359 3453 968 4101 
Q 1578 4750 2638 4750 
Q 3056 4750 3426 4639 
Q 3797 4528 4122 4306 
z
" transform="scale(0.015625)"/>
       <path id="DejaVuSans-50" d="M 1259 4147 
L 1259 2394 
L 2053 2394 
Q 2494 2394 2734 2622 
Q 2975 2850 2975 3272 
Q 2975 3691 2734 3919 
Q 2494 4147 2053 4147 
L 1259 4147 
z
M 628 4666 
L 2053 4666 
Q 2838 4666 3239 4311 
Q 3641 3956 3641 3272 
Q 3641 2581 3239 2228 
Q 2838 1875 2053 1875 
L 1259 1875 
L 1259 0 
L 628 0 
L 628 4666 
z
" transform="scale(0.015625)"/>
       <path id="DejaVuSans-55" d="M 556 4666 
L 1191 4666 
L 1191 1831 
Q 1191 1081 1462 751 
Q 1734 422 2344 422 
Q 2950 422 3222 751 
Q 3494 1081 3494 1831 
L 3494 4666 
L 4128 4666 
L 4128 1753 
Q 4128 841 3676 375 
Q 3225 -91 2344 -91 
Q 1459 -91 1007 375 
Q 556 841 556 1753 
L 556 4666 
z
" transform="scale(0.015625)"/>
       <path id="DejaVuSans-20" transform="scale(0.015625)"/>
       <path id="DejaVuSans-53" d="M 3425 4513 
L 3425 3897 
Q 3066 4069 2747 4153 
Q 2428 4238 2131 4238 
Q 1616 4238 1336 4038 
Q 1056 3838 1056 3469 
Q 1056 3159 1242 3001 
Q 1428 2844 1947 2747 
L 2328 2669 
Q 3034 2534 3370 2195 
Q 3706 1856 3706 1288 
Q 3706 609 3251 259 
Q 2797 -91 1919 -91 
Q 1588 -91 1214 -16 
Q 841 59 441 206 
L 441 856 
Q 825 641 1194 531 
Q 1563 422 1919 422 
Q 2459 422 2753 634 
Q 3047 847 3047 1241 
Q 3047 1584 2836 1778 
Q 2625 1972 2144 2069 
L 1759 2144 
Q 1053 2284 737 2584 
Q 422 2884 422 3419 
Q 422 4038 858 4394 
Q 1294 4750 2059 4750 
Q 2388 4750 2728 4690 
Q 3069 4631 3425 4513 
z
" transform="scale(0.015625)"/>
       <path id="DejaVuSans-65" d="M 3597 1894 
L 3597 1613 
L 953 1613 
Q 991 1019 1311 708 
Q 1631 397 2203 397 
Q 2534 397 2845 478 
Q 3156 559 3463 722 
L 3463 178 
Q 3153 47 2828 -22 
Q 2503 -91 2169 -91 
Q 1331 -91 842 396 
Q 353 884 353 1716 
Q 353 2575 817 3079 
Q 1281 3584 2069 3584 
Q 2775 3584 3186 3129 
Q 3597 2675 3597 1894 
z
M 3022 2063 
Q 3016 2534 2758 2815 
Q 2500 3097 2075 3097 
Q 1594 3097 1305 2825 
Q 1016 2553 972 2059 
L 3022 2063 
z
" transform="scale(0.015625)"/>
       <path id="DejaVuSans-72" d="M 2631 2963 
Q 2534 3019 2420 3045 
Q 2306 3072 2169 3072 
Q 1681 3072 1420 2755 
Q 1159 2438 1159 1844 
L 1159 0 
L 581 0 
L 581 3500 
L 1159 3500 
L 1159 2956 
Q 1341 3275 1631 3429 
Q 1922 3584 2338 3584 
Q 2397 3584 2469 3576 
Q 2541 3569 2628 3553 
L 2631 2963 
z
" transform="scale(0.015625)"/>
       <path id="DejaVuSans-69" d="M 603 3500 
L 1178 3500 
L 1178 0 
L 603 0 
L 603 3500 
z
M 603 4863 
L 1178 4863 
L 1178 4134 
L 603 4134 
L 603 4863 
z
" transform="scale(0.015625)"/>
       <path id="DejaVuSans-73" d="M 2834 3397 
L 2834 2853 
Q 2591 2978 2328 3040 
Q 2066 3103 1784 3103 
Q 1356 3103 1142 2972 
Q 928 2841 928 2578 
Q 928 2378 1081 2264 
Q 1234 2150 1697 2047 
L 1894 2003 
Q 2506 1872 2764 1633 
Q 3022 1394 3022 966 
Q 3022 478 2636 193 
Q 2250 -91 1575 -91 
Q 1294 -91 989 -36 
Q 684 19 347 128 
L 347 722 
Q 666 556 975 473 
Q 1284 391 1588 391 
Q 1994 391 2212 530 
Q 2431 669 2431 922 
Q 2431 1156 2273 1281 
Q 2116 1406 1581 1522 
L 1381 1569 
Q 847 1681 609 1914 
Q 372 2147 372 2553 
Q 372 3047 722 3315 
Q 1072 3584 1716 3584 
Q 2034 3584 2315 3537 
Q 2597 3491 2834 3397 
z
" transform="scale(0.015625)"/>
       <path id="DejaVuSans-46" d="M 628 4666 
L 3309 4666 
L 3309 4134 
L 1259 4134 
L 1259 2759 
L 3109 2759 
L 3109 2228 
L 1259 2228 
L 1259 0 
L 628 0 
L 628 4666 
z
" transform="scale(0.015625)"/>
       <path id="DejaVuSans-61" d="M 2194 1759 
Q 1497 1759 1228 1600 
Q 959 1441 959 1056 
Q 959 750 1161 570 
Q 1363 391 1709 391 
Q 2188 391 2477 730 
Q 2766 1069 2766 1631 
L 2766 1759 
L 2194 1759 
z
M 3341 1997 
L 3341 0 
L 2766 0 
L 2766 531 
Q 2569 213 2275 61 
Q 1981 -91 1556 -91 
Q 1019 -91 701 211 
Q 384 513 384 1019 
Q 384 1609 779 1909 
Q 1175 2209 1959 2209 
L 2766 2209 
L 2766 2266 
Q 2766 2663 2505 2880 
Q 2244 3097 1772 3097 
Q 1472 3097 1187 3025 
Q 903 2953 641 2809 
L 641 3341 
Q 956 3463 1253 3523 
Q 1550 3584 1831 3584 
Q 2591 3584 2966 3190 
Q 3341 2797 3341 1997 
z
" transform="scale(0.015625)"/>
       <path id="DejaVuSans-63" d="M 3122 3366 
L 3122 2828 
Q 2878 2963 2633 3030 
Q 2388 3097 2138 3097 
Q 1578 3097 1268 2742 
Q 959 2388 959 1747 
Q 959 1106 1268 751 
Q 1578 397 2138 397 
Q 2388 397 2633 464 
Q 2878 531 3122 666 
L 3122 134 
Q 2881 22 2623 -34 
Q 2366 -91 2075 -91 
Q 1284 -91 818 406 
Q 353 903 353 1747 
Q 353 2603 823 3093 
Q 1294 3584 2113 3584 
Q 2378 3584 2631 3529 
Q 2884 3475 3122 3366 
z
" transform="scale(0.015625)"/>
       <path id="DejaVuSans-74" d="M 1172 4494 
L 1172 3500 
L 2356 3500 
L 2356 3053 
L 1172 3053 
L 1172 1153 
Q 1172 725 1289 603 
Q 1406 481 1766 481 
L 2356 481 
L 2356 0 
L 1766 0 
Q 1100 0 847 248 
Q 594 497 594 1153 
L 594 3053 
L 172 3053 
L 172 3500 
L 594 3500 
L 594 4494 
L 1172 4494 
z
" transform="scale(0.015625)"/>
       <path id="DejaVuSans-6f" d="M 1959 3097 
Q 1497 3097 1228 2736 
Q 959 2375 959 1747 
Q 959 1119 1226 758 
Q 1494 397 1959 397 
Q 2419 397 2687 759 
Q 2956 1122 2956 1747 
Q 2956 2369 2687 2733 
Q 2419 3097 1959 3097 
z
M 1959 3584 
Q 2709 3584 3137 3096 
Q 3566 2609 3566 1747 
Q 3566 888 3137 398 
Q 2709 -91 1959 -91 
Q 1206 -91 779 398 
Q 353 888 353 1747 
Q 353 2609 779 3096 
Q 1206 3584 1959 3584 
z
" transform="scale(0.015625)"/>
      </defs>
      <use xlink:href="#DejaVuSans-43"/>
      <use xlink:href="#DejaVuSans-50" x="69.824219"/>
      <use xlink:href="#DejaVuSans-55" x="130.126953"/>
      <use xlink:href="#DejaVuSans-20" x="203.320312"/>
      <use xlink:href="#DejaVuSans-53" x="235.107422"/>
      <use xlink:href="#DejaVuSans-65" x="298.583984"/>
      <use xlink:href="#DejaVuSans-72" x="360.107422"/>
      <use xlink:href="#DejaVuSans-69" x="401.220703"/>
      <use xlink:href="#DejaVuSans-65" x="429.003906"/>
      <use xlink:href="#DejaVuSans-73" x="490.527344"/>
      <use xlink:href="#DejaVuSans-20" x="542.626953"/>
      <use xlink:href="#DejaVuSans-46" x="574.414062"/>
      <use xlink:href="#DejaVuSans-61" x="622.808594"/>
      <use xlink:href="#DejaVuSans-63" x="684.087891"/>
      <use xlink:href="#DejaVuSans-74" x="739.068359"/>
      <use xlink:href="#DejaVuSans-6f" x="778.277344"/>
      <use xlink:href="#DejaVuSans-72" x="839.458984"/>
     </g>
    </g>
   </g>
   <g id="matplotlib.axis_2">
    <g id="ytick_1">
     <g id="line2d_1">
      <path d="M 90 384.48 
L 648 384.48 
" clip-path="url(#p6ed10ba9b7)" style="fill: none; stroke: #808080; stroke-width: 0.6; stroke-linecap: round"/>
     </g>
     <g id="text_6">
      <!-- 0 -->
      <g style="fill: #262626" transform="translate(76.6375 388.279219) scale(0.1 -0.1)">
       <defs>
        <path id="DejaVuSans-30" d="M 2034 4250 
Q 1547 4250 1301 3770 
Q 1056 3291 1056 2328 
Q 1056 1369 1301 889 
Q 1547 409 2034 409 
Q 2525 409 2770 889 
Q 3016 1369 3016 2328 
Q 3016 3291 2770 3770 
Q 2525 4250 2034 4250 
z
M 2034 4750 
Q 2819 4750 3233 4129 
Q 3647 3509 3647 2328 
Q 3647 1150 3233 529 
Q 2819 -91 2034 -91 
Q 1250 -91 836 529 
Q 422 1150 422 2328 
Q 422 3509 836 4129 
Q 1250 4750 2034 4750 
z
" transform="scale(0.015625)"/>
       </defs>
       <use xlink:href="#DejaVuSans-30"/>
      </g>
     </g>
    </g>
    <g id="ytick_2">
     <g id="line2d_2">
      <path d="M 90 329.04 
L 648 329.04 
" clip-path="url(#p6ed10ba9b7)" style="fill: none; stroke: #808080; stroke-width: 0.6; stroke-linecap: round"/>
     </g>
     <g id="text_7">
      <!-- 1000 -->
      <g style="fill: #262626" transform="translate(57.55 332.839219) scale(0.1 -0.1)">
       <defs>
        <path id="DejaVuSans-31" d="M 794 531 
L 1825 531 
L 1825 4091 
L 703 3866 
L 703 4441 
L 1819 4666 
L 2450 4666 
L 2450 531 
L 3481 531 
L 3481 0 
L 794 0 
L 794 531 
z
" transform="scale(0.015625)"/>
       </defs>
       <use xlink:href="#DejaVuSans-31"/>
       <use xlink:href="#DejaVuSans-30" x="63.623047"/>
       <use xlink:href="#DejaVuSans-30" x="127.246094"/>
       <use xlink:href="#DejaVuSans-30" x="190.869141"/>
      </g>
     </g>
    </g>
    <g id="ytick_3">
     <g id="line2d_3">
      <path d="M 90 273.6 
L 648 273.6 
" clip-path="url(#p6ed10ba9b7)" style="fill: none; stroke: #808080; stroke-width: 0.6; stroke-linecap: round"/>
     </g>
     <g id="text_8">
      <!-- 2000 -->
      <g style="fill: #262626" transform="translate(57.55 277.399219) scale(0.1 -0.1)">
       <defs>
        <path id="DejaVuSans-32" d="M 1228 531 
L 3431 531 
L 3431 0 
L 469 0 
L 469 531 
Q 828 903 1448 1529 
Q 2069 2156 2228 2338 
Q 2531 2678 2651 2914 
Q 2772 3150 2772 3378 
Q 2772 3750 2511 3984 
Q 2250 4219 1831 4219 
Q 1534 4219 1204 4116 
Q 875 4013 500 3803 
L 500 4441 
Q 881 4594 1212 4672 
Q 1544 4750 1819 4750 
Q 2544 4750 2975 4387 
Q 3406 4025 3406 3419 
Q 3406 3131 3298 2873 
Q 3191 2616 2906 2266 
Q 2828 2175 2409 1742 
Q 1991 1309 1228 531 
z
" transform="scale(0.015625)"/>
       </defs>
       <use xlink:href="#DejaVuSans-32"/>
       <use xlink:href="#DejaVuSans-30" x="63.623047"/>
       <use xlink:href="#DejaVuSans-30" x="127.246094"/>
       <use xlink:href="#DejaVuSans-30" x="190.869141"/>
      </g>
     </g>
    </g>
    <g id="ytick_4">
     <g id="line2d_4">
      <path d="M 90 218.16 
L 648 218.16 
" clip-path="url(#p6ed10ba9b7)" style="fill: none; stroke: #808080; stroke-width: 0.6; stroke-linecap: round"/>
     </g>
     <g id="text_9">
      <!-- 3000 -->
      <g style="fill: #262626" transform="translate(57.55 221.959219) scale(0.1 -0.1)">
       <use xlink:href="#DejaVuSans-33"/>
       <use xlink:href="#DejaVuSans-30" x="63.623047"/>
       <use xlink:href="#DejaVuSans-30" x="127.246094"/>
       <use xlink:href="#DejaVuSans-30" x="190.869141"/>
      </g>
     </g>
    </g>
    <g id="ytick_5">
     <g id="line2d_5">
      <path d="M 90 162.72 
L 648 162.72 
" clip-path="url(#p6ed10ba9b7)" style="fill: none; stroke: #808080; stroke-width: 0.6; stroke-linecap: round"/>
     </g>
     <g id="text_10">
      <!-- 4000 -->
      <g style="fill: #262626" transform="translate(57.55 166.519219) scale(0.1 -0.1)">
       <defs>
        <path id="DejaVuSans-34" d="M 2419 4116 
L 825 1625 
L 2419 1625 
L 2419 4116 
z
M 2253 4666 
L 3047 4666 
L 3047 1625 
L 3713 1625 
L 3713 1100 
L 3047 1100 
L 3047 0 
L 2419 0 
L 2419 1100 
L 313 1100 
L 313 1709 
L 2253 4666 
z
" transform="scale(0.015625)"/>
       </defs>
       <use xlink:href="#DejaVuSans-34"/>
       <use xlink:href="#DejaVuSans-30" x="63.623047"/>
       <use xlink:href="#DejaVuSans-30" x="127.246094"/>
       <use xlink:href="#DejaVuSans-30" x="190.869141"/>
      </g>
     </g>
    </g>
    <g id="ytick_6">
     <g id="line2d_6">
      <path d="M 90 107.28 
L 648 107.28 
" clip-path="url(#p6ed10ba9b7)" style="fill: none; stroke: #808080; stroke-width: 0.6; stroke-linecap: round"/>
     </g>
     <g id="text_11">
      <!-- 5000 -->
      <g style="fill: #262626" transform="translate(57.55 111.079219) scale(0.1 -0.1)">
       <use xlink:href="#DejaVuSans-35"/>
       <use xlink:href="#DejaVuSans-30" x="63.623047"/>
       <use xlink:href="#DejaVuSans-30" x="127.246094"/>
       <use xlink:href="#DejaVuSans-30" x="190.869141"/>
      </g>
     </g>
    </g>
    <g id="ytick_7">
     <g id="line2d_7">
      <path d="M 90 51.84 
L 648 51.84 
" clip-path="url(#p6ed10ba9b7)" style="fill: none; stroke: #808080; stroke-width: 0.6; stroke-linecap: round"/>
     </g>
     <g id="text_12">
      <!-- 6000 -->
      <g style="fill: #262626" transform="translate(57.55 55.639219) scale(0.1 -0.1)">
       <defs>
        <path id="DejaVuSans-36" d="M 2113 2584 
Q 1688 2584 1439 2293 
Q 1191 2003 1191 1497 
Q 1191 994 1439 701 
Q 1688 409 2113 409 
Q 2538 409 2786 701 
Q 3034 994 3034 1497 
Q 3034 2003 2786 2293 
Q 2538 2584 2113 2584 
z
M 3366 4563 
L 3366 3988 
Q 3128 4100 2886 4159 
Q 2644 4219 2406 4219 
Q 1781 4219 1451 3797 
Q 1122 3375 1075 2522 
Q 1259 2794 1537 2939 
Q 1816 3084 2150 3084 
Q 2853 3084 3261 2657 
Q 3669 2231 3669 1497 
Q 3669 778 3244 343 
Q 2819 -91 2113 -91 
Q 1303 -91 875 529 
Q 447 1150 447 2328 
Q 447 3434 972 4092 
Q 1497 4750 2381 4750 
Q 2619 4750 2861 4703 
Q 3103 4656 3366 4563 
z
" transform="scale(0.015625)"/>
       </defs>
       <use xlink:href="#DejaVuSans-36"/>
       <use xlink:href="#DejaVuSans-30" x="63.623047"/>
       <use xlink:href="#DejaVuSans-30" x="127.246094"/>
       <use xlink:href="#DejaVuSans-30" x="190.869141"/>
      </g>
     </g>
    </g>
    <g id="text_13">
     <!-- Price (USD) -->
     <g style="fill: #262626" transform="translate(4.178125 191.132312) scale(0.1 -0.1)">
      <defs>
       <path id="DejaVuSans-28" d="M 1984 4856 
Q 1566 4138 1362 3434 
Q 1159 2731 1159 2009 
Q 1159 1288 1364 580 
Q 1569 -128 1984 -844 
L 1484 -844 
Q 1016 -109 783 600 
Q 550 1309 550 2009 
Q 550 2706 781 3412 
Q 1013 4119 1484 4856 
L 1984 4856 
z
" transform="scale(0.015625)"/>
       <path id="DejaVuSans-44" d="M 1259 4147 
L 1259 519 
L 2022 519 
Q 2988 519 3436 956 
Q 3884 1394 3884 2338 
Q 3884 3275 3436 3711 
Q 2988 4147 2022 4147 
L 1259 4147 
z
M 628 4666 
L 1925 4666 
Q 3281 4666 3915 4102 
Q 4550 3538 4550 2338 
Q 4550 1131 3912 565 
Q 3275 0 1925 0 
L 628 0 
L 628 4666 
z
" transform="scale(0.015625)"/>
       <path id="DejaVuSans-29" d="M 513 4856 
L 1013 4856 
Q 1481 4119 1714 3412 
Q 1947 2706 1947 2009 
Q 1947 1309 1714 600 
Q 1481 -109 1013 -844 
L 513 -844 
Q 928 -128 1133 580 
Q 1338 1288 1338 2009 
Q 1338 2731 1133 3434 
Q 928 4138 513 4856 
z
" transform="scale(0.015625)"/>
      </defs>
      <use xlink:href="#DejaVuSans-50"/>
      <use xlink:href="#DejaVuSans-72" x="58.552734"/>
      <use xlink:href="#DejaVuSans-69" x="99.666016"/>
      <use xlink:href="#DejaVuSans-63" x="127.449219"/>
      <use xlink:href="#DejaVuSans-65" x="182.429688"/>
      <use xlink:href="#DejaVuSans-20" x="243.953125"/>
      <use xlink:href="#DejaVuSans-28" x="275.740234"/>
      <use xlink:href="#DejaVuSans-55" x="314.753906"/>
      <use xlink:href="#DejaVuSans-53" x="387.947266"/>
      <use xlink:href="#DejaVuSans-44" x="451.423828"/>
      <use xlink:href="#DejaVuSans-29" x="528.425781"/>
     </g>
    </g>
   </g>
   <g id="patch_3">
    <path d="M 159.75 384.48 
L 159.75 384.48 
L 159.75 384.48 
L 159.75 384.48 
z
" clip-path="url(#p6ed10ba9b7)" style="fill: #d22424; stroke: #4a4a4a; stroke-linejoin: miter"/>
   </g>
   <g id="patch_4">
    <path d="M 159.75 384.48 
L 159.75 384.48 
L 159.75 384.48 
L 159.75 384.48 
z
" clip-path="url(#p6ed10ba9b7)" style="fill: #20b5dd; stroke: #4a4a4a; stroke-linejoin: miter"/>
   </g>
   <g id="patch_5">
    <path d="M 103.95 366.089443 
L 159.75 366.089443 
L 159.75 360.530336 
L 103.95 360.530336 
L 103.95 366.089443 
z
" clip-path="url(#p6ed10ba9b7)" style="fill: #d22424; stroke: #4a4a4a; stroke-linejoin: miter"/>
   </g>
   <g id="line2d_8">
    <path d="M 131.85 366.089443 
L 131.85 369.56664 
" clip-path="url(#p6ed10ba9b7)" style="fill: none; stroke: #4a4a4a"/>
   </g>
   <g id="line2d_9">
    <path d="M 131.85 360.530336 
L 131.85 356.81544 
" clip-path="url(#p6ed10ba9b7)" style="fill: none; stroke: #4a4a4a"/>
   </g>
   <g id="line2d_10">
    <path d="M 117.9 369.56664 
L 145.8 369.56664 
" clip-path="url(#p6ed10ba9b7)" style="fill: none; stroke: #4a4a4a; stroke-linecap: round"/>
   </g>
   <g id="line2d_11">
    <path d="M 117.9 356.81544 
L 145.8 356.81544 
" clip-path="url(#p6ed10ba9b7)" style="fill: none; stroke: #4a4a4a; stroke-linecap: round"/>
   </g>
   <g id="line2d_12">
    <defs>
     <path id="ma3e543c70a" d="M 0 3 
C 0.795609 3 1.55874 2.683901 2.12132 2.12132 
C 2.683901 1.55874 3 0.795609 3 0 
C 3 -0.795609 2.683901 -1.55874 2.12132 -2.12132 
C 1.55874 -2.683901 0.795609 -3 0 -3 
C -0.795609 -3 -1.55874 -2.683901 -2.12132 -2.12132 
C -2.683901 -1.55874 -3 -0.795609 -3 0 
C -3 0.795609 -2.683901 1.55874 -2.12132 2.12132 
C -1.55874 2.683901 -0.795609 3 0 3 
z
" style="stroke: #4a4a4a"/>
    </defs>
    <g clip-path="url(#p6ed10ba9b7)">
     <use xlink:href="#ma3e543c70a" x="131.85" y="346.398264" style="fill-opacity: 0; stroke: #4a4a4a"/>
    </g>
   </g>
   <g id="patch_6">
    <path d="M 243.45 350.966797 
L 299.25 350.966797 
L 299.25 335.855516 
L 243.45 335.855516 
L 243.45 350.966797 
z
" clip-path="url(#p6ed10ba9b7)" style="fill: #d22424; stroke: #4a4a4a; stroke-linejoin: miter"/>
   </g>
   <g id="line2d_13">
    <path d="M 271.35 350.966797 
L 271.35 359.532 
" clip-path="url(#p6ed10ba9b7)" style="fill: none; stroke: #4a4a4a"/>
   </g>
   <g id="line2d_14">
    <path d="M 271.35 335.855516 
L 271.35 318.00744 
" clip-path="url(#p6ed10ba9b7)" style="fill: none; stroke: #4a4a4a"/>
   </g>
   <g id="line2d_15">
    <path d="M 257.4 359.532 
L 285.3 359.532 
" clip-path="url(#p6ed10ba9b7)" style="fill: none; stroke: #4a4a4a; stroke-linecap: round"/>
   </g>
   <g id="line2d_16">
    <path d="M 257.4 318.00744 
L 285.3 318.00744 
" clip-path="url(#p6ed10ba9b7)" style="fill: none; stroke: #4a4a4a; stroke-linecap: round"/>
   </g>
   <g id="line2d_17">
    <g clip-path="url(#p6ed10ba9b7)">
     <use xlink:href="#ma3e543c70a" x="271.35" y="312.62976" style="fill-opacity: 0; stroke: #4a4a4a"/>
     <use xlink:href="#ma3e543c70a" x="271.35" y="259.629674" style="fill-opacity: 0; stroke: #4a4a4a"/>
    </g>
   </g>
   <g id="patch_7">
    <path d="M 382.95 336.972355 
L 438.75 336.972355 
L 438.75 283.567558 
L 382.95 283.567558 
L 382.95 336.972355 
z
" clip-path="url(#p6ed10ba9b7)" style="fill: #d22424; stroke: #4a4a4a; stroke-linejoin: miter"/>
   </g>
   <g id="line2d_18">
    <path d="M 410.85 336.972355 
L 410.85 361.80504 
" clip-path="url(#p6ed10ba9b7)" style="fill: none; stroke: #4a4a4a"/>
   </g>
   <g id="line2d_19">
    <path d="M 410.85 283.567558 
L 410.85 207.914134 
" clip-path="url(#p6ed10ba9b7)" style="fill: none; stroke: #4a4a4a"/>
   </g>
   <g id="line2d_20">
    <path d="M 396.9 361.80504 
L 424.8 361.80504 
" clip-path="url(#p6ed10ba9b7)" style="fill: none; stroke: #4a4a4a; stroke-linecap: round"/>
   </g>
   <g id="line2d_21">
    <path d="M 396.9 207.914134 
L 424.8 207.914134 
" clip-path="url(#p6ed10ba9b7)" style="fill: none; stroke: #4a4a4a; stroke-linecap: round"/>
   </g>
   <g id="line2d_22">
    <g clip-path="url(#p6ed10ba9b7)">
     <use xlink:href="#ma3e543c70a" x="410.85" y="184.878814" style="fill-opacity: 0; stroke: #4a4a4a"/>
    </g>
   </g>
   <g id="patch_8">
    <path d="M 522.45 290.925554 
L 578.25 290.925554 
L 578.25 232.159154 
L 522.45 232.159154 
L 522.45 290.925554 
z
" clip-path="url(#p6ed10ba9b7)" style="fill: #d22424; stroke: #4a4a4a; stroke-linejoin: miter"/>
   </g>
   <g id="line2d_23">
    <path d="M 550.35 290.925554 
L 550.35 306.864554 
" clip-path="url(#p6ed10ba9b7)" style="fill: none; stroke: #4a4a4a"/>
   </g>
   <g id="line2d_24">
    <path d="M 550.35 232.159154 
L 550.35 171.036554 
" clip-path="url(#p6ed10ba9b7)" style="fill: none; stroke: #4a4a4a"/>
   </g>
   <g id="line2d_25">
    <path d="M 536.4 306.864554 
L 564.3 306.864554 
" clip-path="url(#p6ed10ba9b7)" style="fill: none; stroke: #4a4a4a; stroke-linecap: round"/>
   </g>
   <g id="line2d_26">
    <path d="M 536.4 171.036554 
L 564.3 171.036554 
" clip-path="url(#p6ed10ba9b7)" style="fill: none; stroke: #4a4a4a; stroke-linecap: round"/>
   </g>
   <g id="line2d_27"/>
   <g id="patch_9">
    <path d="M 159.75 363.19104 
L 215.55 363.19104 
L 215.55 347.301659 
L 159.75 347.301659 
L 159.75 363.19104 
z
" clip-path="url(#p6ed10ba9b7)" style="fill: #20b5dd; stroke: #4a4a4a; stroke-linejoin: miter"/>
   </g>
   <g id="line2d_28">
    <path d="M 187.65 363.19104 
L 187.65 378.936554 
" clip-path="url(#p6ed10ba9b7)" style="fill: none; stroke: #4a4a4a"/>
   </g>
   <g id="line2d_29">
    <path d="M 187.65 347.301659 
L 187.65 323.55144 
" clip-path="url(#p6ed10ba9b7)" style="fill: none; stroke: #4a4a4a"/>
   </g>
   <g id="line2d_30">
    <path d="M 173.7 378.936554 
L 201.6 378.936554 
" clip-path="url(#p6ed10ba9b7)" style="fill: none; stroke: #4a4a4a; stroke-linecap: round"/>
   </g>
   <g id="line2d_31">
    <path d="M 173.7 323.55144 
L 201.6 323.55144 
" clip-path="url(#p6ed10ba9b7)" style="fill: none; stroke: #4a4a4a; stroke-linecap: round"/>
   </g>
   <g id="line2d_32"/>
   <g id="patch_10">
    <path d="M 299.25 346.032914 
L 355.05 346.032914 
L 355.05 319.343544 
L 299.25 319.343544 
L 299.25 346.032914 
z
" clip-path="url(#p6ed10ba9b7)" style="fill: #20b5dd; stroke: #4a4a4a; stroke-linejoin: miter"/>
   </g>
   <g id="line2d_33">
    <path d="M 327.15 346.032914 
L 327.15 378.43704 
" clip-path="url(#p6ed10ba9b7)" style="fill: none; stroke: #4a4a4a"/>
   </g>
   <g id="line2d_34">
    <path d="M 327.15 319.343544 
L 327.15 279.843653 
" clip-path="url(#p6ed10ba9b7)" style="fill: none; stroke: #4a4a4a"/>
   </g>
   <g id="line2d_35">
    <path d="M 313.2 378.43704 
L 341.1 378.43704 
" clip-path="url(#p6ed10ba9b7)" style="fill: none; stroke: #4a4a4a; stroke-linecap: round"/>
   </g>
   <g id="line2d_36">
    <path d="M 313.2 279.843653 
L 341.1 279.843653 
" clip-path="url(#p6ed10ba9b7)" style="fill: none; stroke: #4a4a4a; stroke-linecap: round"/>
   </g>
   <g id="line2d_37">
    <g clip-path="url(#p6ed10ba9b7)">
     <use xlink:href="#ma3e543c70a" x="327.15" y="279.223834" style="fill-opacity: 0; stroke: #4a4a4a"/>
     <use xlink:href="#ma3e543c70a" x="327.15" y="279.19944" style="fill-opacity: 0; stroke: #4a4a4a"/>
     <use xlink:href="#ma3e543c70a" x="327.15" y="279.19944" style="fill-opacity: 0; stroke: #4a4a4a"/>
     <use xlink:href="#ma3e543c70a" x="327.15" y="278.978234" style="fill-opacity: 0; stroke: #4a4a4a"/>
     <use xlink:href="#ma3e543c70a" x="327.15" y="278.032982" style="fill-opacity: 0; stroke: #4a4a4a"/>
     <use xlink:href="#ma3e543c70a" x="327.15" y="277.72141" style="fill-opacity: 0; stroke: #4a4a4a"/>
     <use xlink:href="#ma3e543c70a" x="327.15" y="277.481354" style="fill-opacity: 0; stroke: #4a4a4a"/>
     <use xlink:href="#ma3e543c70a" x="327.15" y="277.259594" style="fill-opacity: 0; stroke: #4a4a4a"/>
     <use xlink:href="#ma3e543c70a" x="327.15" y="276.816074" style="fill-opacity: 0; stroke: #4a4a4a"/>
     <use xlink:href="#ma3e543c70a" x="327.15" y="273.65544" style="fill-opacity: 0; stroke: #4a4a4a"/>
     <use xlink:href="#ma3e543c70a" x="327.15" y="273.65544" style="fill-opacity: 0; stroke: #4a4a4a"/>
     <use xlink:href="#ma3e543c70a" x="327.15" y="273.157034" style="fill-opacity: 0; stroke: #4a4a4a"/>
     <use xlink:href="#ma3e543c70a" x="327.15" y="272.476786" style="fill-opacity: 0; stroke: #4a4a4a"/>
     <use xlink:href="#ma3e543c70a" x="327.15" y="272.323217" style="fill-opacity: 0; stroke: #4a4a4a"/>
     <use xlink:href="#ma3e543c70a" x="327.15" y="272.164658" style="fill-opacity: 0; stroke: #4a4a4a"/>
     <use xlink:href="#ma3e543c70a" x="327.15" y="271.881914" style="fill-opacity: 0; stroke: #4a4a4a"/>
     <use xlink:href="#ma3e543c70a" x="327.15" y="271.837008" style="fill-opacity: 0; stroke: #4a4a4a"/>
     <use xlink:href="#ma3e543c70a" x="327.15" y="271.43784" style="fill-opacity: 0; stroke: #4a4a4a"/>
     <use xlink:href="#ma3e543c70a" x="327.15" y="268.11144" style="fill-opacity: 0; stroke: #4a4a4a"/>
     <use xlink:href="#ma3e543c70a" x="327.15" y="262.56744" style="fill-opacity: 0; stroke: #4a4a4a"/>
     <use xlink:href="#ma3e543c70a" x="327.15" y="259.533763" style="fill-opacity: 0; stroke: #4a4a4a"/>
     <use xlink:href="#ma3e543c70a" x="327.15" y="257.02344" style="fill-opacity: 0; stroke: #4a4a4a"/>
     <use xlink:href="#ma3e543c70a" x="327.15" y="256.289414" style="fill-opacity: 0; stroke: #4a4a4a"/>
     <use xlink:href="#ma3e543c70a" x="327.15" y="251.424554" style="fill-opacity: 0; stroke: #4a4a4a"/>
     <use xlink:href="#ma3e543c70a" x="327.15" y="245.769674" style="fill-opacity: 0; stroke: #4a4a4a"/>
     <use xlink:href="#ma3e543c70a" x="327.15" y="243.053114" style="fill-opacity: 0; stroke: #4a4a4a"/>
     <use xlink:href="#ma3e543c70a" x="327.15" y="235.236074" style="fill-opacity: 0; stroke: #4a4a4a"/>
     <use xlink:href="#ma3e543c70a" x="327.15" y="234.958874" style="fill-opacity: 0; stroke: #4a4a4a"/>
     <use xlink:href="#ma3e543c70a" x="327.15" y="208.347674" style="fill-opacity: 0; stroke: #4a4a4a"/>
     <use xlink:href="#ma3e543c70a" x="327.15" y="195.097514" style="fill-opacity: 0; stroke: #4a4a4a"/>
    </g>
   </g>
   <g id="patch_11">
    <path d="M 438.75 318.814924 
L 494.55 318.814924 
L 494.55 266.434934 
L 438.75 266.434934 
L 438.75 318.814924 
z
" clip-path="url(#p6ed10ba9b7)" style="fill: #20b5dd; stroke: #4a4a4a; stroke-linejoin: miter"/>
   </g>
   <g id="line2d_38">
    <path d="M 466.65 318.814924 
L 466.65 377.829972 
" clip-path="url(#p6ed10ba9b7)" style="fill: none; stroke: #4a4a4a"/>
   </g>
   <g id="line2d_39">
    <path d="M 466.65 266.434934 
L 466.65 188.555594 
" clip-path="url(#p6ed10ba9b7)" style="fill: none; stroke: #4a4a4a"/>
   </g>
   <g id="line2d_40">
    <path d="M 452.7 377.829972 
L 480.6 377.829972 
" clip-path="url(#p6ed10ba9b7)" style="fill: none; stroke: #4a4a4a; stroke-linecap: round"/>
   </g>
   <g id="line2d_41">
    <path d="M 452.7 188.555594 
L 480.6 188.555594 
" clip-path="url(#p6ed10ba9b7)" style="fill: none; stroke: #4a4a4a; stroke-linecap: round"/>
   </g>
   <g id="line2d_42">
    <g clip-path="url(#p6ed10ba9b7)">
     <use xlink:href="#ma3e543c70a" x="466.65" y="184.95144" style="fill-opacity: 0; stroke: #4a4a4a"/>
     <use xlink:href="#ma3e543c70a" x="466.65" y="184.95144" style="fill-opacity: 0; stroke: #4a4a4a"/>
     <use xlink:href="#ma3e543c70a" x="466.65" y="179.352554" style="fill-opacity: 0; stroke: #4a4a4a"/>
     <use xlink:href="#ma3e543c70a" x="466.65" y="174.609662" style="fill-opacity: 0; stroke: #4a4a4a"/>
     <use xlink:href="#ma3e543c70a" x="466.65" y="173.86344" style="fill-opacity: 0; stroke: #4a4a4a"/>
     <use xlink:href="#ma3e543c70a" x="466.65" y="173.86344" style="fill-opacity: 0; stroke: #4a4a4a"/>
     <use xlink:href="#ma3e543c70a" x="466.65" y="173.808554" style="fill-opacity: 0; stroke: #4a4a4a"/>
     <use xlink:href="#ma3e543c70a" x="466.65" y="172.644314" style="fill-opacity: 0; stroke: #4a4a4a"/>
     <use xlink:href="#ma3e543c70a" x="466.65" y="169.927754" style="fill-opacity: 0; stroke: #4a4a4a"/>
     <use xlink:href="#ma3e543c70a" x="466.65" y="167.377514" style="fill-opacity: 0; stroke: #4a4a4a"/>
     <use xlink:href="#ma3e543c70a" x="466.65" y="162.77544" style="fill-opacity: 0; stroke: #4a4a4a"/>
     <use xlink:href="#ma3e543c70a" x="466.65" y="162.716119" style="fill-opacity: 0; stroke: #4a4a4a"/>
     <use xlink:href="#ma3e543c70a" x="466.65" y="146.14344" style="fill-opacity: 0; stroke: #4a4a4a"/>
    </g>
   </g>
   <g id="patch_12">
    <path d="M 578.25 256.968554 
L 634.05 256.968554 
L 634.05 195.984554 
L 578.25 195.984554 
L 578.25 256.968554 
z
" clip-path="url(#p6ed10ba9b7)" style="fill: #20b5dd; stroke: #4a4a4a; stroke-linejoin: miter"/>
   </g>
   <g id="line2d_43">
    <path d="M 606.15 256.968554 
L 606.15 329.594954 
" clip-path="url(#p6ed10ba9b7)" style="fill: none; stroke: #4a4a4a"/>
   </g>
   <g id="line2d_44">
    <path d="M 606.15 195.984554 
L 606.15 107.33544 
" clip-path="url(#p6ed10ba9b7)" style="fill: none; stroke: #4a4a4a"/>
   </g>
   <g id="line2d_45">
    <path d="M 592.2 329.594954 
L 620.1 329.594954 
" clip-path="url(#p6ed10ba9b7)" style="fill: none; stroke: #4a4a4a; stroke-linecap: round"/>
   </g>
   <g id="line2d_46">
    <path d="M 592.2 107.33544 
L 620.1 107.33544 
" clip-path="url(#p6ed10ba9b7)" style="fill: none; stroke: #4a4a4a; stroke-linecap: round"/>
   </g>
   <g id="line2d_47">
    <g clip-path="url(#p6ed10ba9b7)">
     <use xlink:href="#ma3e543c70a" x="606.15" y="79.61544" style="fill-opacity: 0; stroke: #4a4a4a"/>
     <use xlink:href="#ma3e543c70a" x="606.15" y="74.110802" style="fill-opacity: 0; stroke: #4a4a4a"/>
     <use xlink:href="#ma3e543c70a" x="606.15" y="74.07144" style="fill-opacity: 0; stroke: #4a4a4a"/>
    </g>
   </g>
   <g id="line2d_48">
    <path d="M 103.95 363.765398 
L 159.75 363.765398 
" clip-path="url(#p6ed10ba9b7)" style="fill: none; stroke: #4a4a4a"/>
   </g>
   <g id="line2d_49">
    <path d="M 243.45 345.173594 
L 299.25 345.173594 
" clip-path="url(#p6ed10ba9b7)" style="fill: none; stroke: #4a4a4a"/>
   </g>
   <g id="line2d_50">
    <path d="M 382.95 313.57224 
L 438.75 313.57224 
" clip-path="url(#p6ed10ba9b7)" style="fill: none; stroke: #4a4a4a"/>
   </g>
   <g id="line2d_51">
    <path d="M 522.45 253.642154 
L 578.25 253.642154 
" clip-path="url(#p6ed10ba9b7)" style="fill: none; stroke: #4a4a4a"/>
   </g>
   <g id="line2d_52">
    <path d="M 159.75 357.869354 
L 215.55 357.869354 
" clip-path="url(#p6ed10ba9b7)" style="fill: none; stroke: #4a4a4a"/>
   </g>
   <g id="line2d_53">
    <path d="M 299.25 335.804234 
L 355.05 335.804234 
" clip-path="url(#p6ed10ba9b7)" style="fill: none; stroke: #4a4a4a"/>
   </g>
   <g id="line2d_54">
    <path d="M 438.75 294.866507 
L 494.55 294.866507 
" clip-path="url(#p6ed10ba9b7)" style="fill: none; stroke: #4a4a4a"/>
   </g>
   <g id="line2d_55">
    <path d="M 578.25 226.53144 
L 634.05 226.53144 
" clip-path="url(#p6ed10ba9b7)" style="fill: none; stroke: #4a4a4a"/>
   </g>
   <g id="patch_13">
    <path d="M 90 384.48 
L 90 51.84 
" style="fill: none; stroke: #000000; stroke-linejoin: miter; stroke-linecap: square"/>
   </g>
   <g id="patch_14">
    <path d="M 648 384.48 
L 648 51.84 
" style="fill: none; stroke: #ffffff; stroke-width: 0.8; stroke-linejoin: miter; stroke-linecap: square"/>
   </g>
   <g id="patch_15">
    <path d="M 90 384.48 
L 648 384.48 
" style="fill: none; stroke: #000000; stroke-linejoin: miter; stroke-linecap: square"/>
   </g>
   <g id="patch_16">
    <path d="M 90 51.84 
L 648 51.84 
" style="fill: none; stroke: #ffffff; stroke-width: 0.8; stroke-linejoin: miter; stroke-linecap: square"/>
   </g>
   <g id="text_14">
    <!-- Price vs CPU Series Factor, of Intel's and AMD's main line-up of CPUs (Under $6,000) -->
    <g style="fill: #262626" transform="translate(115.716563 36.84) scale(0.12 -0.12)">
     <defs>
      <path id="DejaVuSans-76" d="M 191 3500 
L 800 3500 
L 1894 563 
L 2988 3500 
L 3597 3500 
L 2284 0 
L 1503 0 
L 191 3500 
z
" transform="scale(0.015625)"/>
      <path id="DejaVuSans-2c" d="M 750 794 
L 1409 794 
L 1409 256 
L 897 -744 
L 494 -744 
L 750 256 
L 750 794 
z
" transform="scale(0.015625)"/>
      <path id="DejaVuSans-66" d="M 2375 4863 
L 2375 4384 
L 1825 4384 
Q 1516 4384 1395 4259 
Q 1275 4134 1275 3809 
L 1275 3500 
L 2222 3500 
L 2222 3053 
L 1275 3053 
L 1275 0 
L 697 0 
L 697 3053 
L 147 3053 
L 147 3500 
L 697 3500 
L 697 3744 
Q 697 4328 969 4595 
Q 1241 4863 1831 4863 
L 2375 4863 
z
" transform="scale(0.015625)"/>
      <path id="DejaVuSans-49" d="M 628 4666 
L 1259 4666 
L 1259 0 
L 628 0 
L 628 4666 
z
" transform="scale(0.015625)"/>
      <path id="DejaVuSans-6e" d="M 3513 2113 
L 3513 0 
L 2938 0 
L 2938 2094 
Q 2938 2591 2744 2837 
Q 2550 3084 2163 3084 
Q 1697 3084 1428 2787 
Q 1159 2491 1159 1978 
L 1159 0 
L 581 0 
L 581 3500 
L 1159 3500 
L 1159 2956 
Q 1366 3272 1645 3428 
Q 1925 3584 2291 3584 
Q 2894 3584 3203 3211 
Q 3513 2838 3513 2113 
z
" transform="scale(0.015625)"/>
      <path id="DejaVuSans-6c" d="M 603 4863 
L 1178 4863 
L 1178 0 
L 603 0 
L 603 4863 
z
" transform="scale(0.015625)"/>
      <path id="DejaVuSans-27" d="M 1147 4666 
L 1147 2931 
L 616 2931 
L 616 4666 
L 1147 4666 
z
" transform="scale(0.015625)"/>
      <path id="DejaVuSans-64" d="M 2906 2969 
L 2906 4863 
L 3481 4863 
L 3481 0 
L 2906 0 
L 2906 525 
Q 2725 213 2448 61 
Q 2172 -91 1784 -91 
Q 1150 -91 751 415 
Q 353 922 353 1747 
Q 353 2572 751 3078 
Q 1150 3584 1784 3584 
Q 2172 3584 2448 3432 
Q 2725 3281 2906 2969 
z
M 947 1747 
Q 947 1113 1208 752 
Q 1469 391 1925 391 
Q 2381 391 2643 752 
Q 2906 1113 2906 1747 
Q 2906 2381 2643 2742 
Q 2381 3103 1925 3103 
Q 1469 3103 1208 2742 
Q 947 2381 947 1747 
z
" transform="scale(0.015625)"/>
      <path id="DejaVuSans-41" d="M 2188 4044 
L 1331 1722 
L 3047 1722 
L 2188 4044 
z
M 1831 4666 
L 2547 4666 
L 4325 0 
L 3669 0 
L 3244 1197 
L 1141 1197 
L 716 0 
L 50 0 
L 1831 4666 
z
" transform="scale(0.015625)"/>
      <path id="DejaVuSans-4d" d="M 628 4666 
L 1569 4666 
L 2759 1491 
L 3956 4666 
L 4897 4666 
L 4897 0 
L 4281 0 
L 4281 4097 
L 3078 897 
L 2444 897 
L 1241 4097 
L 1241 0 
L 628 0 
L 628 4666 
z
" transform="scale(0.015625)"/>
      <path id="DejaVuSans-6d" d="M 3328 2828 
Q 3544 3216 3844 3400 
Q 4144 3584 4550 3584 
Q 5097 3584 5394 3201 
Q 5691 2819 5691 2113 
L 5691 0 
L 5113 0 
L 5113 2094 
Q 5113 2597 4934 2840 
Q 4756 3084 4391 3084 
Q 3944 3084 3684 2787 
Q 3425 2491 3425 1978 
L 3425 0 
L 2847 0 
L 2847 2094 
Q 2847 2600 2669 2842 
Q 2491 3084 2119 3084 
Q 1678 3084 1418 2786 
Q 1159 2488 1159 1978 
L 1159 0 
L 581 0 
L 581 3500 
L 1159 3500 
L 1159 2956 
Q 1356 3278 1631 3431 
Q 1906 3584 2284 3584 
Q 2666 3584 2933 3390 
Q 3200 3197 3328 2828 
z
" transform="scale(0.015625)"/>
      <path id="DejaVuSans-2d" d="M 313 2009 
L 1997 2009 
L 1997 1497 
L 313 1497 
L 313 2009 
z
" transform="scale(0.015625)"/>
      <path id="DejaVuSans-75" d="M 544 1381 
L 544 3500 
L 1119 3500 
L 1119 1403 
Q 1119 906 1312 657 
Q 1506 409 1894 409 
Q 2359 409 2629 706 
Q 2900 1003 2900 1516 
L 2900 3500 
L 3475 3500 
L 3475 0 
L 2900 0 
L 2900 538 
Q 2691 219 2414 64 
Q 2138 -91 1772 -91 
Q 1169 -91 856 284 
Q 544 659 544 1381 
z
M 1991 3584 
L 1991 3584 
z
" transform="scale(0.015625)"/>
      <path id="DejaVuSans-70" d="M 1159 525 
L 1159 -1331 
L 581 -1331 
L 581 3500 
L 1159 3500 
L 1159 2969 
Q 1341 3281 1617 3432 
Q 1894 3584 2278 3584 
Q 2916 3584 3314 3078 
Q 3713 2572 3713 1747 
Q 3713 922 3314 415 
Q 2916 -91 2278 -91 
Q 1894 -91 1617 61 
Q 1341 213 1159 525 
z
M 3116 1747 
Q 3116 2381 2855 2742 
Q 2594 3103 2138 3103 
Q 1681 3103 1420 2742 
Q 1159 2381 1159 1747 
Q 1159 1113 1420 752 
Q 1681 391 2138 391 
Q 2594 391 2855 752 
Q 3116 1113 3116 1747 
z
" transform="scale(0.015625)"/>
      <path id="DejaVuSans-24" d="M 2163 -941 
L 1850 -941 
L 1847 0 
Q 1519 6 1191 76 
Q 863 147 531 288 
L 531 850 
Q 850 650 1176 548 
Q 1503 447 1850 444 
L 1850 1869 
Q 1159 1981 845 2250 
Q 531 2519 531 2988 
Q 531 3497 872 3790 
Q 1213 4084 1850 4128 
L 1850 4863 
L 2163 4863 
L 2163 4138 
Q 2453 4125 2725 4076 
Q 2997 4028 3256 3944 
L 3256 3397 
Q 2997 3528 2723 3600 
Q 2450 3672 2163 3684 
L 2163 2350 
Q 2872 2241 3206 1959 
Q 3541 1678 3541 1191 
Q 3541 663 3186 358 
Q 2831 53 2163 6 
L 2163 -941 
z
M 1850 2406 
L 1850 3688 
Q 1488 3647 1297 3481 
Q 1106 3316 1106 3041 
Q 1106 2772 1282 2622 
Q 1459 2472 1850 2406 
z
M 2163 1806 
L 2163 453 
Q 2559 506 2761 678 
Q 2963 850 2963 1131 
Q 2963 1406 2770 1568 
Q 2578 1731 2163 1806 
z
" transform="scale(0.015625)"/>
     </defs>
     <use xlink:href="#DejaVuSans-50"/>
     <use xlink:href="#DejaVuSans-72" x="58.552734"/>
     <use xlink:href="#DejaVuSans-69" x="99.666016"/>
     <use xlink:href="#DejaVuSans-63" x="127.449219"/>
     <use xlink:href="#DejaVuSans-65" x="182.429688"/>
     <use xlink:href="#DejaVuSans-20" x="243.953125"/>
     <use xlink:href="#DejaVuSans-76" x="275.740234"/>
     <use xlink:href="#DejaVuSans-73" x="334.919922"/>
     <use xlink:href="#DejaVuSans-20" x="387.019531"/>
     <use xlink:href="#DejaVuSans-43" x="418.806641"/>
     <use xlink:href="#DejaVuSans-50" x="488.630859"/>
     <use xlink:href="#DejaVuSans-55" x="548.933594"/>
     <use xlink:href="#DejaVuSans-20" x="622.126953"/>
     <use xlink:href="#DejaVuSans-53" x="653.914062"/>
     <use xlink:href="#DejaVuSans-65" x="717.390625"/>
     <use xlink:href="#DejaVuSans-72" x="778.914062"/>
     <use xlink:href="#DejaVuSans-69" x="820.027344"/>
     <use xlink:href="#DejaVuSans-65" x="847.810547"/>
     <use xlink:href="#DejaVuSans-73" x="909.333984"/>
     <use xlink:href="#DejaVuSans-20" x="961.433594"/>
     <use xlink:href="#DejaVuSans-46" x="993.220703"/>
     <use xlink:href="#DejaVuSans-61" x="1041.615234"/>
     <use xlink:href="#DejaVuSans-63" x="1102.894531"/>
     <use xlink:href="#DejaVuSans-74" x="1157.875"/>
     <use xlink:href="#DejaVuSans-6f" x="1197.083984"/>
     <use xlink:href="#DejaVuSans-72" x="1258.265625"/>
     <use xlink:href="#DejaVuSans-2c" x="1299.378906"/>
     <use xlink:href="#DejaVuSans-20" x="1331.166016"/>
     <use xlink:href="#DejaVuSans-6f" x="1362.953125"/>
     <use xlink:href="#DejaVuSans-66" x="1424.134766"/>
     <use xlink:href="#DejaVuSans-20" x="1459.339844"/>
     <use xlink:href="#DejaVuSans-49" x="1491.126953"/>
     <use xlink:href="#DejaVuSans-6e" x="1520.619141"/>
     <use xlink:href="#DejaVuSans-74" x="1583.998047"/>
     <use xlink:href="#DejaVuSans-65" x="1623.207031"/>
     <use xlink:href="#DejaVuSans-6c" x="1684.730469"/>
     <use xlink:href="#DejaVuSans-27" x="1712.513672"/>
     <use xlink:href="#DejaVuSans-73" x="1740.003906"/>
     <use xlink:href="#DejaVuSans-20" x="1792.103516"/>
     <use xlink:href="#DejaVuSans-61" x="1823.890625"/>
     <use xlink:href="#DejaVuSans-6e" x="1885.169922"/>
     <use xlink:href="#DejaVuSans-64" x="1948.548828"/>
     <use xlink:href="#DejaVuSans-20" x="2012.025391"/>
     <use xlink:href="#DejaVuSans-41" x="2043.8125"/>
     <use xlink:href="#DejaVuSans-4d" x="2112.220703"/>
     <use xlink:href="#DejaVuSans-44" x="2198.5"/>
     <use xlink:href="#DejaVuSans-27" x="2275.501953"/>
     <use xlink:href="#DejaVuSans-73" x="2302.992188"/>
     <use xlink:href="#DejaVuSans-20" x="2355.091797"/>
     <use xlink:href="#DejaVuSans-6d" x="2386.878906"/>
     <use xlink:href="#DejaVuSans-61" x="2484.291016"/>
     <use xlink:href="#DejaVuSans-69" x="2545.570312"/>
     <use xlink:href="#DejaVuSans-6e" x="2573.353516"/>
     <use xlink:href="#DejaVuSans-20" x="2636.732422"/>
     <use xlink:href="#DejaVuSans-6c" x="2668.519531"/>
     <use xlink:href="#DejaVuSans-69" x="2696.302734"/>
     <use xlink:href="#DejaVuSans-6e" x="2724.085938"/>
     <use xlink:href="#DejaVuSans-65" x="2787.464844"/>
     <use xlink:href="#DejaVuSans-2d" x="2848.988281"/>
     <use xlink:href="#DejaVuSans-75" x="2885.072266"/>
     <use xlink:href="#DejaVuSans-70" x="2948.451172"/>
     <use xlink:href="#DejaVuSans-20" x="3011.927734"/>
     <use xlink:href="#DejaVuSans-6f" x="3043.714844"/>
     <use xlink:href="#DejaVuSans-66" x="3104.896484"/>
     <use xlink:href="#DejaVuSans-20" x="3140.101562"/>
     <use xlink:href="#DejaVuSans-43" x="3171.888672"/>
     <use xlink:href="#DejaVuSans-50" x="3241.712891"/>
     <use xlink:href="#DejaVuSans-55" x="3302.015625"/>
     <use xlink:href="#DejaVuSans-73" x="3375.208984"/>
     <use xlink:href="#DejaVuSans-20" x="3427.308594"/>
     <use xlink:href="#DejaVuSans-28" x="3459.095703"/>
     <use xlink:href="#DejaVuSans-55" x="3498.109375"/>
     <use xlink:href="#DejaVuSans-6e" x="3571.302734"/>
     <use xlink:href="#DejaVuSans-64" x="3634.681641"/>
     <use xlink:href="#DejaVuSans-65" x="3698.158203"/>
     <use xlink:href="#DejaVuSans-72" x="3759.681641"/>
     <use xlink:href="#DejaVuSans-20" x="3800.794922"/>
     <use xlink:href="#DejaVuSans-24" x="3832.582031"/>
     <use xlink:href="#DejaVuSans-36" x="3896.205078"/>
     <use xlink:href="#DejaVuSans-2c" x="3959.828125"/>
     <use xlink:href="#DejaVuSans-30" x="3991.615234"/>
     <use xlink:href="#DejaVuSans-30" x="4055.238281"/>
     <use xlink:href="#DejaVuSans-30" x="4118.861328"/>
     <use xlink:href="#DejaVuSans-29" x="4182.484375"/>
    </g>
   </g>
   <g id="legend_1">
    <g id="patch_17">
     <path d="M 97 89.19625 
L 185.403125 89.19625 
Q 187.403125 89.19625 187.403125 87.19625 
L 187.403125 58.84 
Q 187.403125 56.84 185.403125 56.84 
L 97 56.84 
Q 95 56.84 95 58.84 
L 95 87.19625 
Q 95 89.19625 97 89.19625 
z
" style="fill: #eaeaf2; opacity: 0.8; stroke: #cccccc; stroke-linejoin: miter"/>
    </g>
    <g id="patch_18">
     <path d="M 99 68.438437 
L 119 68.438437 
L 119 61.438437 
L 99 61.438437 
z
" style="fill: #00c7fd; stroke: #00c7fd; stroke-linejoin: miter"/>
    </g>
    <g id="text_15">
     <!-- Intel Core i -->
     <g style="fill: #262626" transform="translate(127 68.438437) scale(0.1 -0.1)">
      <use xlink:href="#DejaVuSans-49"/>
      <use xlink:href="#DejaVuSans-6e" x="29.492188"/>
      <use xlink:href="#DejaVuSans-74" x="92.871094"/>
      <use xlink:href="#DejaVuSans-65" x="132.080078"/>
      <use xlink:href="#DejaVuSans-6c" x="193.603516"/>
      <use xlink:href="#DejaVuSans-20" x="221.386719"/>
      <use xlink:href="#DejaVuSans-43" x="253.173828"/>
      <use xlink:href="#DejaVuSans-6f" x="322.998047"/>
      <use xlink:href="#DejaVuSans-72" x="384.179688"/>
      <use xlink:href="#DejaVuSans-65" x="423.042969"/>
      <use xlink:href="#DejaVuSans-20" x="484.566406"/>
      <use xlink:href="#DejaVuSans-69" x="516.353516"/>
     </g>
    </g>
    <g id="patch_19">
     <path d="M 99 83.116562 
L 119 83.116562 
L 119 76.116562 
L 99 76.116562 
z
" style="fill: #ef0707; stroke: #ef0707; stroke-linejoin: miter"/>
    </g>
    <g id="text_16">
     <!-- AMD Ryzen -->
     <g style="fill: #262626" transform="translate(127 83.116562) scale(0.1 -0.1)">
      <defs>
       <path id="DejaVuSans-52" d="M 2841 2188 
Q 3044 2119 3236 1894 
Q 3428 1669 3622 1275 
L 4263 0 
L 3584 0 
L 2988 1197 
Q 2756 1666 2539 1819 
Q 2322 1972 1947 1972 
L 1259 1972 
L 1259 0 
L 628 0 
L 628 4666 
L 2053 4666 
Q 2853 4666 3247 4331 
Q 3641 3997 3641 3322 
Q 3641 2881 3436 2590 
Q 3231 2300 2841 2188 
z
M 1259 4147 
L 1259 2491 
L 2053 2491 
Q 2509 2491 2742 2702 
Q 2975 2913 2975 3322 
Q 2975 3731 2742 3939 
Q 2509 4147 2053 4147 
L 1259 4147 
z
" transform="scale(0.015625)"/>
       <path id="DejaVuSans-79" d="M 2059 -325 
Q 1816 -950 1584 -1140 
Q 1353 -1331 966 -1331 
L 506 -1331 
L 506 -850 
L 844 -850 
Q 1081 -850 1212 -737 
Q 1344 -625 1503 -206 
L 1606 56 
L 191 3500 
L 800 3500 
L 1894 763 
L 2988 3500 
L 3597 3500 
L 2059 -325 
z
" transform="scale(0.015625)"/>
       <path id="DejaVuSans-7a" d="M 353 3500 
L 3084 3500 
L 3084 2975 
L 922 459 
L 3084 459 
L 3084 0 
L 275 0 
L 275 525 
L 2438 3041 
L 353 3041 
L 353 3500 
z
" transform="scale(0.015625)"/>
      </defs>
      <use xlink:href="#DejaVuSans-41"/>
      <use xlink:href="#DejaVuSans-4d" x="68.408203"/>
      <use xlink:href="#DejaVuSans-44" x="154.6875"/>
      <use xlink:href="#DejaVuSans-20" x="231.689453"/>
      <use xlink:href="#DejaVuSans-52" x="263.476562"/>
      <use xlink:href="#DejaVuSans-79" x="327.458984"/>
      <use xlink:href="#DejaVuSans-7a" x="386.638672"/>
      <use xlink:href="#DejaVuSans-65" x="439.128906"/>
      <use xlink:href="#DejaVuSans-6e" x="500.652344"/>
     </g>
    </g>
   </g>
  </g>
 </g>
 <defs>
  <clipPath id="p6ed10ba9b7">
   <rect x="90" y="51.84" width="558" height="332.64"/>
  </clipPath>
 </defs>
</svg>
